<?xml version="1.0" encoding="UTF-8" standalone="no"?>
<svg
   width="28.24881"
   height="31.057854"
   fill="none"
   version="1.1"
   id="svg48"
   xmlns="http://www.w3.org/2000/svg"
   xmlns:svg="http://www.w3.org/2000/svg">
  <defs
     id="defs52" />
  <path
     d="m 17.297528,17.529807 c 1.2,-0.95 1.2,-2.8 0,-3.78 a 27.45,27.45 0 0 0 -5.58,-3.59 c -1.38,-0.6599999 -2.9200004,0.26 -3.1400004,1.83 -0.34,2.4 -0.4,4.82 -0.18,7.12 0.15,1.59 1.6700004,2.54 3.0700004,1.93 a 25.4,25.4 0 0 0 5.83,-3.5 z m 8.97,-6.99 a 7.57,7.57 0 0 1 0.02,10.19 33.84,33.84 0 0 1 -16.9600004,10.13 6.62,6.62 0 0 1 -7.98,-4.63 c -1.97,-6.73 -1.68,-14.34 0.22,-21.0999999 1,-3.55 4.34,-5.78000001 7.78,-4.96000001 C 15.717528,1.6898071 21.697528,5.5998071 26.267528,10.539807 Z"
     fill="#85c742"
     id="path46" />
</svg>
